<?xml version="1.0" encoding="iso-8859-1"?>
<!-- Uploaded to: SVG Repo, www.svgrepo.com, Generator: SVG Repo Mixer Tools -->
<svg height="800px" width="800px" version="1.1" id="Layer_1" xmlns="http://www.w3.org/2000/svg" xmlns:xlink="http://www.w3.org/1999/xlink" 
	 viewBox="0 0 480 480" xml:space="preserve">
<path style="fill:#00233F;" d="M480,337.626L480,337.626L480,337.626c-31.2-56-126.4-151.2-240-151.2c-132.8,0-189.6,55.2-240,151.2
	l0,0l0,0l0,0l0,0c31.2,64,126.4,116,240,116S448.8,401.626,480,337.626L480,337.626L480,337.626z"/>
<path style="fill:#00121E;" d="M480,337.626L480,337.626L480,337.626c-31.2-56-126.4-130.4-240-130.4c-132.8,0-190.4,34.4-240,130.4
	l0,0l0,0l0,0l0,0c31.2,56,126.4,114.4,240,114.4S448.8,393.626,480,337.626L480,337.626L480,337.626z"/>
<path style="fill:#CBF7F6;" d="M480,337.626L480,337.626L480,337.626c-31.2-40-126.4-104-240-104c-132.8,0-189.6,32-240,104l0,0l0,0
	l0,0l0,0c31.2,40,126.4,94.4,240,94.4S448.8,377.626,480,337.626L480,337.626L480,337.626z"/>
<path style="fill:#BAE8E4;" d="M480,337.626L480,337.626L480,337.626L480,337.626L480,337.626c-31.2-40-126.4-104-240-104
	c-132.8,0-189.6,32-240,104l0,0l0,0l0,0l0,0"/>
<path style="fill:#8EC1B9;" d="M296,252.026l-133.6,133.6l44,44c11.2,0.8,22.4,2.4,33.6,2.4c74.4,0,140.8-24,186.4-51.2L296,252.026
	z"/>
<path style="fill:#00A850;" d="M336.8,332.026c0,53.6-43.2,96.8-96.8,96.8s-96.8-43.2-96.8-96.8s43.2-96.8,96.8-96.8
	S336.8,278.426,336.8,332.026z"/>
<path style="fill:#006D2C;" d="M240,235.226c53.6,0,96.8,43.2,96.8,96.8s-43.2,96.8-96.8,96.8"/>
<path style="fill:#364944;" d="M282.4,332.026c0,23.2-19.2,42.4-42.4,42.4s-42.4-19.2-42.4-42.4c0-23.2,19.2-42.4,42.4-42.4
	S282.4,308.026,282.4,332.026z"/>
<path style="fill:#050707;" d="M270.4,301.626c16.8,16.8,16.8,43.2,0,60s-43.2,16.8-60,0"/>
<g>
	<path style="fill:#FFFFFF;" d="M235.2,300.826c0,12-9.6,21.6-21.6,21.6s-21.6-9.6-21.6-21.6s9.6-21.6,21.6-21.6
		C225.6,279.226,235.2,288.826,235.2,300.826z"/>
	<path style="fill:#FFFFFF;" d="M280,360.026c0,5.6-4.8,9.6-9.6,9.6c-5.6,0-9.6-4.8-9.6-9.6c0-5.6,4.8-9.6,9.6-9.6
		C276,350.426,280,354.426,280,360.026z"/>
</g>
<g>
	<polygon style="fill:#00233F;" points="169.6,208.026 114.4,156.026 142.4,226.426 	"/>
	<polygon style="fill:#00233F;" points="117.6,219.226 52.8,180.026 94.4,242.426 	"/>
	<polygon style="fill:#00233F;" points="67.2,244.826 10.4,232.026 56.8,268.026 	"/>
</g>
<ellipse transform="matrix(-0.4619 -0.8869 0.8869 -0.4619 -120.4508 509.5825)" style="fill:#F0FFFE;" cx="94.361" cy="291.331" rx="16.001" ry="48.003"/>
<path style="fill:#00233F;" d="M243.2,64.826c100.8,12.8,184,60,227.2,121.6c-16-77.6-101.6-144-211.2-157.6
	c-91.2-11.2-176,16.8-221.6,67.2C93.6,68.026,165.6,55.226,243.2,64.826z"/>
</svg>